<svg xmlns="http://www.w3.org/2000/svg" xmlns:xlink="http://www.w3.org/1999/xlink" width="500" zoomAndPan="magnify" viewBox="0 0 375 374.999991" height="500" preserveAspectRatio="xMidYMid meet" version="1.0"><defs><g/><clipPath id="d6c93f26f3"><path d="M 31.644531 38 L 343.644531 38 L 343.644531 302 L 31.644531 302 Z M 31.644531 38 " clip-rule="nonzero"/></clipPath><clipPath id="21c291a018"><path d="M 81.402344 107.515625 L 246.402344 107.515625 L 246.402344 277.015625 L 81.402344 277.015625 Z M 81.402344 107.515625 " clip-rule="nonzero"/></clipPath><clipPath id="ef4bfefce2"><path d="M 163.832031 107.515625 L 279.332031 107.515625 L 279.332031 277.015625 L 163.832031 277.015625 Z M 163.832031 107.515625 " clip-rule="nonzero"/></clipPath><clipPath id="51eb3d529f"><path d="M 115.492188 166.910156 L 207.742188 166.910156 L 207.742188 255.410156 L 115.492188 255.410156 Z M 115.492188 166.910156 " clip-rule="nonzero"/></clipPath><clipPath id="a3af1eefaf"><path d="M 81.402344 265.515625 L 295.902344 265.515625 L 295.902344 329.128906 L 81.402344 329.128906 Z M 81.402344 265.515625 " clip-rule="nonzero"/></clipPath></defs><rect x="-37.5" width="450" fill="#ffffff" y="-37.499999" height="449.999989" fill-opacity="1"/><rect x="-37.5" width="450" fill="#ffffff" y="-37.499999" height="449.999989" fill-opacity="1"/><rect x="-37.5" width="450" fill="#000000" y="-37.499999" height="449.999989" fill-opacity="1"/><g clip-path="url(#d6c93f26f3)"><path fill="#ffffff" d="M 336.828125 220.328125 L 336.828125 177.996094 L 333.042969 177.996094 C 330.011719 100.519531 266.023438 38.535156 187.644531 38.535156 C 109.265625 38.535156 45.273438 100.519531 42.246094 177.996094 L 38.457031 177.996094 L 38.457031 220.328125 C 34.671875 220.707031 31.644531 224.109375 31.644531 228.265625 L 31.644531 268.328125 C 31.644531 272.863281 35.050781 276.265625 39.59375 276.265625 C 40.730469 276.265625 41.867188 275.886719 42.625 275.507812 C 45.652344 290.25 58.90625 301.589844 74.429688 301.589844 L 74.429688 194.628906 C 67.613281 194.628906 61.554688 196.519531 56.253906 199.917969 L 56.253906 177.621094 L 52.847656 177.621094 C 55.875 106.1875 114.945312 49.117188 187.644531 49.117188 C 260.34375 49.117188 319.410156 106.1875 322.4375 177.996094 L 319.03125 177.996094 L 319.03125 200.296875 C 313.730469 196.894531 307.671875 195.003906 300.855469 195.003906 L 300.855469 301.964844 C 316.757812 301.964844 329.632812 290.628906 332.664062 275.886719 C 333.417969 276.265625 334.554688 276.644531 335.691406 276.644531 C 340.234375 276.644531 343.644531 273.242188 343.644531 268.707031 L 343.644531 227.886719 C 343.644531 224.109375 340.992188 220.707031 336.828125 220.328125 Z M 336.828125 220.328125 " fill-opacity="1" fill-rule="nonzero"/></g><g clip-path="url(#21c291a018)"><path fill="#ffffff" d="M 163.902344 107.515625 L 246.402344 277.015625 L 81.40625 277.015625 L 163.902344 107.515625 " fill-opacity="1" fill-rule="nonzero"/></g><g clip-path="url(#ef4bfefce2)"><path fill="#ffffff" d="M 194.660156 277.015625 L 167.738281 277.015625 C 165.613281 277.015625 163.890625 275.289062 163.890625 273.160156 L 163.890625 111.367188 C 163.890625 109.238281 165.613281 107.515625 167.738281 107.515625 L 275.421875 107.515625 C 277.546875 107.515625 279.269531 109.238281 279.269531 111.367188 L 279.269531 134.480469 C 279.269531 136.605469 277.546875 138.332031 275.421875 138.332031 L 198.503906 138.332031 L 198.503906 180.707031 L 263.886719 180.707031 C 266.007812 180.707031 267.730469 182.433594 267.730469 184.558594 L 267.730469 203.820312 C 267.730469 205.949219 266.007812 207.671875 263.886719 207.671875 L 198.503906 207.671875 L 198.503906 273.160156 C 198.503906 275.289062 196.78125 277.015625 194.660156 277.015625 Z M 194.660156 277.015625 " fill-opacity="1" fill-rule="nonzero"/></g><path stroke-linecap="butt" transform="matrix(5.571929, 10.609719, -10.987582, 5.770372, 163.791366, 107.533015)" fill="none" stroke-linejoin="miter" d="M -0.0000682246 -0.00018049 L 15.959914 0.0000111271 " stroke="#000000" stroke-width="1" stroke-opacity="1" stroke-miterlimit="4"/><path stroke-linecap="butt" transform="matrix(-12.371208, 21.427561, -21.505406, -12.416152, 298.127505, 144.912778)" fill="none" stroke-linejoin="miter" d="M 0.0000166524 -0.0000747411 L 4.637831 0.0000899919 " stroke="#000000" stroke-width="1" stroke-opacity="1" stroke-miterlimit="4"/><g clip-path="url(#51eb3d529f)"><path fill="#000000" d="M 161.617188 166.914062 L 207.742188 255.40625 L 115.492188 255.40625 L 161.617188 166.914062 " fill-opacity="1" fill-rule="nonzero"/></g><g clip-path="url(#a3af1eefaf)"><path fill="#15a9e9" d="M 295.902344 296.703125 L 292.855469 296.703125 L 292.855469 294.644531 L 291.703125 294.644531 L 291.703125 296.703125 L 291.207031 296.703125 L 291.207031 290.121094 L 290.054688 290.121094 L 290.054688 296.703125 L 289.476562 296.703125 L 289.476562 287.074219 L 288.40625 287.074219 L 288.40625 296.703125 L 287.832031 296.703125 L 287.832031 283.289062 L 286.675781 283.289062 L 286.675781 296.703125 L 286.183594 296.703125 L 286.183594 278.84375 L 285.03125 278.84375 L 285.03125 296.703125 L 284.453125 296.703125 L 284.453125 289.296875 L 283.382812 289.296875 L 283.382812 296.703125 L 282.804688 296.703125 L 282.804688 294.644531 L 281.65625 294.644531 L 281.65625 296.703125 L 281.160156 296.703125 L 281.160156 290.449219 L 280.007812 290.449219 L 280.007812 296.703125 L 279.429688 296.703125 L 279.429688 285.675781 L 278.355469 285.675781 L 278.355469 296.703125 L 277.78125 296.703125 L 277.78125 275.964844 L 276.707031 275.964844 L 276.707031 296.703125 L 276.132812 296.703125 L 276.132812 285.511719 L 274.980469 285.511719 L 274.980469 296.703125 L 274.402344 296.703125 L 274.402344 289.296875 L 273.332031 289.296875 L 273.332031 296.703125 L 272.757812 296.703125 L 272.757812 283.457031 L 271.6875 283.457031 L 271.6875 296.703125 L 271.105469 296.703125 L 271.105469 276.128906 L 269.953125 276.128906 L 269.953125 296.703125 L 269.460938 296.703125 L 269.460938 282.960938 L 268.308594 282.960938 L 268.308594 296.703125 L 267.730469 296.703125 L 267.730469 292.011719 L 266.660156 292.011719 L 266.660156 296.703125 L 266.082031 296.703125 L 266.082031 287.816406 L 264.929688 287.816406 L 264.929688 296.703125 L 264.433594 296.703125 L 264.433594 281.808594 L 263.285156 281.808594 L 263.285156 296.703125 L 262.707031 296.703125 L 262.707031 279.09375 L 261.636719 279.09375 L 261.636719 296.703125 L 261.058594 296.703125 L 261.058594 284.03125 L 259.90625 284.03125 L 259.90625 296.703125 L 259.414062 296.703125 L 259.414062 291.601562 L 258.257812 291.601562 L 258.257812 296.703125 L 257.683594 296.703125 L 257.683594 294.644531 L 256.613281 294.644531 L 256.613281 296.703125 L 256.035156 296.703125 L 256.035156 291.601562 L 254.960938 291.601562 L 254.960938 296.703125 L 254.386719 296.703125 L 254.386719 286.828125 L 253.230469 286.828125 L 253.230469 296.703125 L 252.65625 296.703125 L 252.65625 281.066406 L 251.585938 281.066406 L 251.585938 296.703125 L 251.011719 296.703125 L 251.011719 277.28125 L 249.9375 277.28125 L 249.9375 296.703125 L 249.363281 296.703125 L 249.363281 283.699219 L 248.207031 283.699219 L 248.207031 296.703125 L 247.71875 296.703125 L 247.71875 290.285156 L 246.5625 290.285156 L 246.5625 296.703125 L 245.988281 296.703125 L 245.988281 294.644531 L 244.914062 294.644531 L 244.914062 296.703125 L 244.335938 296.703125 L 244.335938 290.367188 L 243.183594 290.367188 L 243.183594 296.703125 L 242.6875 296.703125 L 242.6875 286.167969 L 241.539062 286.167969 L 241.539062 296.703125 L 240.957031 296.703125 L 240.957031 279.585938 L 239.890625 279.585938 L 239.890625 296.703125 L 239.3125 296.703125 L 239.3125 272.839844 L 238.242188 272.839844 L 238.242188 296.703125 L 237.664062 296.703125 L 237.664062 268.804688 L 236.511719 268.804688 L 236.511719 296.703125 L 235.933594 296.703125 L 235.933594 275.222656 L 234.867188 275.222656 L 234.867188 296.703125 L 234.289062 296.703125 L 234.289062 281.398438 L 233.214844 281.398438 L 233.214844 296.703125 L 232.640625 296.703125 L 232.640625 287.816406 L 231.488281 287.816406 L 231.488281 296.703125 L 230.992188 296.703125 L 230.992188 291.765625 L 229.84375 291.765625 L 229.84375 296.703125 L 229.265625 296.703125 L 229.265625 294.644531 L 228.191406 294.644531 L 228.191406 296.703125 L 227.617188 296.703125 L 227.617188 291.109375 L 226.460938 291.109375 L 226.460938 296.703125 L 225.972656 296.703125 L 225.972656 287.488281 L 224.8125 287.488281 L 224.8125 296.703125 L 224.238281 296.703125 L 224.238281 281.726562 L 223.167969 281.726562 L 223.167969 296.703125 L 222.59375 296.703125 L 222.59375 276.871094 L 221.4375 276.871094 L 221.4375 296.703125 L 220.941406 296.703125 L 220.941406 284.03125 L 219.789062 284.03125 L 219.789062 296.703125 L 219.210938 296.703125 L 219.210938 277.117188 L 218.144531 277.117188 L 218.144531 296.703125 L 217.566406 296.703125 L 217.566406 281.726562 L 216.496094 281.726562 L 216.496094 296.703125 L 215.917969 296.703125 L 215.917969 283.621094 L 214.765625 283.621094 L 214.765625 296.703125 L 214.1875 296.703125 L 214.1875 290.367188 L 213.117188 290.367188 L 213.117188 296.703125 L 212.539062 296.703125 L 212.539062 284.195312 L 211.472656 284.195312 L 211.472656 296.703125 L 210.894531 296.703125 L 210.894531 287.734375 L 209.742188 287.734375 L 209.742188 296.703125 L 209.246094 296.703125 L 209.246094 283.699219 L 208.089844 283.699219 L 208.089844 296.703125 L 207.515625 296.703125 L 207.515625 290.449219 L 206.445312 290.449219 L 206.445312 296.703125 L 205.871094 296.703125 L 205.871094 286.335938 L 204.71875 286.335938 L 204.71875 296.703125 L 204.222656 296.703125 L 204.222656 283.042969 L 203.066406 283.042969 L 203.066406 296.703125 L 202.492188 296.703125 L 202.492188 290.367188 L 201.421875 290.367188 L 201.421875 296.703125 L 200.839844 296.703125 L 200.839844 288.0625 L 199.691406 288.0625 L 199.691406 296.703125 L 199.195312 296.703125 L 199.195312 288.640625 L 198.042969 288.640625 L 198.042969 296.703125 L 197.464844 296.703125 L 197.464844 288.640625 L 196.394531 288.640625 L 196.394531 296.703125 L 195.824219 296.703125 L 195.824219 291.929688 L 194.75 291.929688 L 194.75 296.703125 L 194.171875 296.703125 L 194.171875 289.792969 L 193.019531 289.792969 L 193.019531 296.703125 L 192.441406 296.703125 L 192.441406 285.839844 L 191.371094 285.839844 L 191.371094 296.703125 L 190.792969 296.703125 L 190.792969 287.40625 L 189.726562 287.40625 L 189.726562 296.703125 L 189.148438 296.703125 L 189.148438 281.398438 L 187.996094 281.398438 L 187.996094 296.703125 L 187.5 296.703125 L 187.5 294.644531 L 186.347656 294.644531 L 186.347656 296.703125 L 185.769531 296.703125 L 185.769531 295.714844 L 184.695312 295.714844 L 184.695312 296.703125 L 184.125 296.703125 L 184.125 291.601562 L 182.964844 291.601562 L 182.964844 296.703125 L 182.476562 296.703125 L 182.476562 288.96875 L 181.320312 288.96875 L 181.320312 296.703125 L 180.746094 296.703125 L 180.746094 286.003906 L 179.671875 286.003906 L 179.671875 296.703125 L 179.097656 296.703125 L 179.097656 281.726562 L 177.945312 281.726562 L 177.945312 296.703125 L 177.453125 296.703125 L 177.453125 276.621094 L 176.296875 276.621094 L 176.296875 296.703125 L 175.722656 296.703125 L 175.722656 285.59375 L 174.648438 285.59375 L 174.648438 296.703125 L 174.070312 296.703125 L 174.070312 290.941406 L 173 290.941406 L 173 296.703125 L 172.425781 296.703125 L 172.425781 294.644531 L 171.273438 294.644531 L 171.273438 296.703125 L 170.695312 296.703125 L 170.695312 291.519531 L 169.625 291.519531 L 169.625 296.703125 L 169.046875 296.703125 L 169.046875 287.898438 L 167.976562 287.898438 L 167.976562 296.703125 L 167.398438 296.703125 L 167.398438 283.125 L 166.25 283.125 L 166.25 296.703125 L 165.753906 296.703125 L 165.753906 289.792969 L 164.601562 289.792969 L 164.601562 296.703125 L 164.023438 296.703125 L 164.023438 294.644531 L 162.953125 294.644531 L 162.953125 296.703125 L 162.378906 296.703125 L 162.378906 292.589844 L 161.222656 292.589844 L 161.222656 296.703125 L 160.730469 296.703125 L 160.730469 289.050781 L 159.578125 289.050781 L 159.578125 296.703125 L 159 296.703125 L 159 284.195312 L 157.925781 284.195312 L 157.925781 296.703125 L 157.351562 296.703125 L 157.351562 279.996094 L 156.195312 279.996094 L 156.195312 296.703125 L 155.707031 296.703125 L 155.707031 273.25 L 154.550781 273.25 L 154.550781 296.703125 L 153.976562 296.703125 L 153.976562 265.511719 L 152.902344 265.511719 L 152.902344 296.703125 L 152.328125 296.703125 L 152.328125 281.234375 L 151.253906 281.234375 L 151.253906 296.703125 L 150.683594 296.703125 L 150.683594 292.507812 L 149.523438 292.507812 L 149.523438 296.703125 L 148.953125 296.703125 L 148.953125 294.648438 L 147.878906 294.648438 L 147.878906 296.703125 L 147.300781 296.703125 L 147.300781 295.714844 L 146.230469 295.714844 L 146.230469 296.703125 L 145.652344 296.703125 L 145.652344 291.355469 L 144.503906 291.355469 L 144.503906 296.703125 L 144.007812 296.703125 L 144.007812 288.886719 L 142.855469 288.886719 L 142.855469 296.703125 L 142.277344 296.703125 L 142.277344 285.921875 L 141.207031 285.921875 L 141.207031 296.703125 L 140.628906 296.703125 L 140.628906 282.960938 L 139.476562 282.960938 L 139.476562 296.703125 L 138.984375 296.703125 L 138.984375 280.902344 L 137.832031 280.902344 L 137.832031 296.703125 L 137.253906 296.703125 L 137.253906 285.429688 L 136.183594 285.429688 L 136.183594 296.703125 L 135.605469 296.703125 L 135.605469 288.390625 L 134.453125 288.390625 L 134.453125 296.703125 L 133.957031 296.703125 L 133.957031 290.367188 L 132.808594 290.367188 L 132.808594 296.703125 L 132.226562 296.703125 L 132.226562 292.011719 L 131.15625 292.011719 L 131.15625 296.703125 L 130.582031 296.703125 L 130.582031 288.96875 L 129.507812 288.96875 L 129.507812 296.703125 L 128.933594 296.703125 L 128.933594 282.878906 L 127.78125 282.878906 L 127.78125 296.703125 L 127.203125 296.703125 L 127.203125 288.886719 L 126.132812 288.886719 L 126.132812 296.703125 L 125.554688 296.703125 L 125.554688 291.355469 L 124.484375 291.355469 L 124.484375 296.703125 L 123.910156 296.703125 L 123.910156 288.472656 L 122.753906 288.472656 L 122.753906 296.703125 L 122.261719 296.703125 L 122.261719 286.910156 L 121.109375 286.910156 L 121.109375 296.703125 L 120.53125 296.703125 L 120.53125 291.847656 L 119.460938 291.847656 L 119.460938 296.703125 L 118.882812 296.703125 L 118.882812 288.886719 L 117.730469 288.886719 L 117.730469 296.703125 L 117.234375 296.703125 L 117.234375 287.898438 L 116.082031 287.898438 L 116.082031 296.703125 L 115.503906 296.703125 L 115.503906 290.941406 L 114.433594 290.941406 L 114.433594 296.703125 L 113.859375 296.703125 L 113.859375 293.164062 L 112.785156 293.164062 L 112.785156 296.703125 L 112.210938 296.703125 L 112.210938 295.304688 L 111.058594 295.304688 L 111.058594 296.703125 L 110.480469 296.703125 L 110.480469 292.011719 L 109.410156 292.011719 L 109.410156 296.703125 L 108.832031 296.703125 L 108.832031 289.132812 L 107.761719 289.132812 L 107.761719 296.703125 L 107.1875 296.703125 L 107.1875 285.59375 L 106.035156 285.59375 L 106.035156 296.703125 L 105.539062 296.703125 L 105.539062 280.410156 L 104.386719 280.410156 L 104.386719 296.703125 L 103.808594 296.703125 L 103.808594 289.871094 L 102.738281 289.871094 L 102.738281 296.703125 L 102.160156 296.703125 L 102.160156 293.085938 L 101.007812 293.085938 L 101.007812 296.703125 L 100.515625 296.703125 L 100.515625 294.648438 L 99.359375 294.648438 L 99.359375 296.703125 L 98.785156 296.703125 L 98.785156 296.046875 L 97.714844 296.046875 L 97.714844 296.703125 L 97.136719 296.703125 L 97.136719 288.886719 L 95.984375 288.886719 L 95.984375 296.703125 L 95.488281 296.703125 L 95.488281 295.386719 L 94.335938 295.386719 L 94.335938 296.703125 L 93.757812 296.703125 L 93.757812 281.234375 L 92.6875 281.234375 L 92.6875 296.703125 L 92.113281 296.703125 L 92.113281 272.589844 L 91.039062 272.589844 L 91.039062 296.703125 L 90.464844 296.703125 L 90.464844 278.597656 L 89.3125 278.597656 L 89.3125 296.703125 L 88.734375 296.703125 L 88.734375 286.085938 L 87.664062 286.085938 L 87.664062 296.703125 L 87.085938 296.703125 L 87.085938 290.53125 L 86.015625 290.53125 L 86.015625 296.703125 L 85.441406 296.703125 L 85.441406 293 L 84.285156 293 L 84.285156 296.703125 L 83.792969 296.703125 L 83.792969 294.648438 L 82.640625 294.648438 L 82.640625 296.703125 L 81.402344 296.703125 L 81.402344 297.855469 L 82.640625 297.855469 L 82.640625 299.996094 L 83.792969 299.996094 L 83.792969 297.855469 L 84.285156 297.855469 L 84.285156 301.640625 L 85.441406 301.640625 L 85.441406 297.855469 L 86.015625 297.855469 L 86.015625 304.109375 L 87.085938 304.109375 L 87.085938 297.855469 L 87.664062 297.855469 L 87.664062 308.554688 L 88.734375 308.554688 L 88.734375 297.855469 L 89.3125 297.855469 L 89.3125 316.042969 L 90.464844 316.042969 L 90.464844 297.855469 L 91.039062 297.855469 L 91.039062 322.050781 L 92.113281 322.050781 L 92.113281 297.855469 L 92.6875 297.855469 L 92.6875 313.410156 L 93.757812 313.410156 L 93.757812 297.855469 L 94.335938 297.855469 L 94.335938 299.253906 L 95.488281 299.253906 L 95.488281 297.855469 L 95.984375 297.855469 L 95.984375 305.753906 L 97.136719 305.753906 L 97.136719 297.855469 L 97.714844 297.855469 L 97.714844 298.515625 L 98.785156 298.515625 L 98.785156 297.855469 L 99.359375 297.855469 L 99.359375 299.996094 L 100.515625 299.996094 L 100.515625 297.855469 L 101.007812 297.855469 L 101.007812 301.476562 L 102.160156 301.476562 L 102.160156 297.855469 L 102.738281 297.855469 L 102.738281 304.769531 L 103.808594 304.769531 L 103.808594 297.855469 L 104.386719 297.855469 L 104.386719 314.152344 L 105.539062 314.152344 L 105.539062 297.855469 L 106.035156 297.855469 L 106.035156 308.964844 L 107.1875 308.964844 L 107.1875 297.855469 L 107.761719 297.855469 L 107.761719 305.511719 L 108.832031 305.511719 L 108.832031 297.855469 L 109.410156 297.855469 L 109.410156 302.628906 L 110.480469 302.628906 L 110.480469 297.855469 L 111.058594 297.855469 L 111.058594 299.335938 L 112.210938 299.335938 L 112.210938 297.855469 L 112.785156 297.855469 L 112.785156 301.476562 L 113.859375 301.476562 L 113.859375 297.855469 L 114.433594 297.855469 L 114.433594 303.699219 L 115.503906 303.699219 L 115.503906 297.855469 L 116.082031 297.855469 L 116.082031 306.742188 L 117.234375 306.742188 L 117.234375 297.855469 L 117.730469 297.855469 L 117.730469 305.753906 L 118.882812 305.753906 L 118.882812 297.855469 L 119.460938 297.855469 L 119.460938 302.792969 L 120.53125 302.792969 L 120.53125 297.855469 L 121.109375 297.855469 L 121.109375 307.648438 L 122.261719 307.648438 L 122.261719 297.855469 L 122.753906 297.855469 L 122.753906 306.167969 L 123.910156 306.167969 L 123.910156 297.855469 L 124.484375 297.855469 L 124.484375 303.207031 L 125.554688 303.207031 L 125.554688 297.855469 L 126.132812 297.855469 L 126.132812 305.671875 L 127.203125 305.671875 L 127.203125 297.855469 L 127.78125 297.855469 L 127.78125 311.683594 L 128.933594 311.683594 L 128.933594 297.855469 L 129.507812 297.855469 L 129.507812 305.671875 L 130.582031 305.671875 L 130.582031 297.855469 L 131.15625 297.855469 L 131.15625 302.628906 L 132.226562 302.628906 L 132.226562 297.855469 L 132.808594 297.855469 L 132.808594 304.273438 L 133.957031 304.273438 L 133.957031 297.855469 L 134.453125 297.855469 L 134.453125 306.167969 L 135.605469 306.167969 L 135.605469 297.855469 L 136.183594 297.855469 L 136.183594 309.128906 L 137.253906 309.128906 L 137.253906 297.855469 L 137.832031 297.855469 L 137.832031 313.742188 L 138.984375 313.742188 L 138.984375 297.855469 L 139.476562 297.855469 L 139.476562 311.597656 L 140.628906 311.597656 L 140.628906 297.855469 L 141.207031 297.855469 L 141.207031 308.71875 L 142.277344 308.71875 L 142.277344 297.855469 L 142.855469 297.855469 L 142.855469 305.753906 L 144.007812 305.753906 L 144.007812 297.855469 L 144.503906 297.855469 L 144.503906 303.207031 L 145.652344 303.207031 L 145.652344 297.855469 L 146.230469 297.855469 L 146.230469 298.925781 L 147.300781 298.925781 L 147.300781 297.855469 L 147.878906 297.855469 L 147.878906 299.996094 L 148.953125 299.996094 L 148.953125 297.855469 L 149.523438 297.855469 L 149.523438 302.136719 L 150.683594 302.136719 L 150.683594 297.855469 L 151.253906 297.855469 L 151.253906 313.410156 L 152.328125 313.410156 L 152.328125 297.855469 L 152.902344 297.855469 L 152.902344 329.128906 L 153.976562 329.128906 L 153.976562 297.855469 L 154.550781 297.855469 L 154.550781 321.394531 L 155.707031 321.394531 L 155.707031 297.855469 L 156.195312 297.855469 L 156.195312 314.5625 L 157.351562 314.5625 L 157.351562 297.855469 L 157.925781 297.855469 L 157.925781 310.449219 L 159 310.449219 L 159 297.855469 L 159.578125 297.855469 L 159.578125 305.511719 L 160.730469 305.511719 L 160.730469 297.855469 L 161.222656 297.855469 L 161.222656 302.054688 L 162.378906 302.054688 L 162.378906 297.855469 L 162.953125 297.855469 L 162.953125 299.996094 L 164.023438 299.996094 L 164.023438 297.855469 L 164.601562 297.855469 L 164.601562 304.851562 L 165.753906 304.851562 L 165.753906 297.855469 L 166.25 297.855469 L 166.25 311.433594 L 167.398438 311.433594 L 167.398438 297.855469 L 167.976562 297.855469 L 167.976562 306.742188 L 169.046875 306.742188 L 169.046875 297.855469 L 169.625 297.855469 L 169.625 303.039062 L 170.695312 303.039062 L 170.695312 297.855469 L 171.273438 297.855469 L 171.273438 299.996094 L 172.425781 299.996094 L 172.425781 297.855469 L 173 297.855469 L 173 303.699219 L 174.070312 303.699219 L 174.070312 297.855469 L 174.648438 297.855469 L 174.648438 309.046875 L 175.722656 309.046875 L 175.722656 297.855469 L 176.296875 297.855469 L 176.296875 318.019531 L 177.453125 318.019531 L 177.453125 297.855469 L 177.945312 297.855469 L 177.945312 312.914062 L 179.097656 312.914062 L 179.097656 297.855469 L 179.671875 297.855469 L 179.671875 308.554688 L 180.746094 308.554688 L 180.746094 297.855469 L 181.320312 297.855469 L 181.320312 305.671875 L 182.476562 305.671875 L 182.476562 297.855469 L 182.964844 297.855469 L 182.964844 302.957031 L 184.125 302.957031 L 184.125 297.855469 L 184.695312 297.855469 L 184.695312 298.925781 L 185.769531 298.925781 L 185.769531 297.855469 L 186.347656 297.855469 L 186.347656 299.996094 L 187.5 299.996094 L 187.5 297.855469 L 187.996094 297.855469 L 187.996094 313.160156 L 189.148438 313.160156 L 189.148438 297.855469 L 189.726562 297.855469 L 189.726562 307.238281 L 190.792969 307.238281 L 190.792969 297.855469 L 191.371094 297.855469 L 191.371094 308.800781 L 192.441406 308.800781 L 192.441406 297.855469 L 193.019531 297.855469 L 193.019531 304.851562 L 194.171875 304.851562 L 194.171875 297.855469 L 194.75 297.855469 L 194.75 302.710938 L 195.824219 302.710938 L 195.824219 297.855469 L 196.394531 297.855469 L 196.394531 306.003906 L 197.464844 306.003906 L 197.464844 297.855469 L 198.042969 297.855469 L 198.042969 306.003906 L 199.195312 306.003906 L 199.195312 297.855469 L 199.691406 297.855469 L 199.691406 306.578125 L 200.839844 306.578125 L 200.839844 297.855469 L 201.421875 297.855469 L 201.421875 304.273438 L 202.492188 304.273438 L 202.492188 297.855469 L 203.066406 297.855469 L 203.066406 311.515625 L 204.222656 311.515625 L 204.222656 297.855469 L 204.71875 297.855469 L 204.71875 308.308594 L 205.871094 308.308594 L 205.871094 297.855469 L 206.445312 297.855469 L 206.445312 304.191406 L 207.515625 304.191406 L 207.515625 297.855469 L 208.089844 297.855469 L 208.089844 310.859375 L 209.246094 310.859375 L 209.246094 297.855469 L 209.742188 297.855469 L 209.742188 306.824219 L 210.894531 306.824219 L 210.894531 297.855469 L 211.472656 297.855469 L 211.472656 310.367188 L 212.539062 310.367188 L 212.539062 297.855469 L 213.117188 297.855469 L 213.117188 304.191406 L 214.1875 304.191406 L 214.1875 297.855469 L 214.765625 297.855469 L 214.765625 311.023438 L 215.917969 311.023438 L 215.917969 297.855469 L 216.496094 297.855469 L 216.496094 312.832031 L 217.566406 312.832031 L 217.566406 297.855469 L 218.144531 297.855469 L 218.144531 317.441406 L 219.210938 317.441406 L 219.210938 297.855469 L 219.789062 297.855469 L 219.789062 310.613281 L 220.941406 310.613281 L 220.941406 297.855469 L 221.4375 297.855469 L 221.4375 317.769531 L 222.59375 317.769531 L 222.59375 297.855469 L 223.167969 297.855469 L 223.167969 312.832031 L 224.238281 312.832031 L 224.238281 297.855469 L 224.8125 297.855469 L 224.8125 307.15625 L 225.972656 307.15625 L 225.972656 297.855469 L 226.460938 297.855469 L 226.460938 303.453125 L 227.617188 303.453125 L 227.617188 297.855469 L 228.191406 297.855469 L 228.191406 299.996094 L 229.265625 299.996094 L 229.265625 297.855469 L 229.84375 297.855469 L 229.84375 302.792969 L 230.992188 302.792969 L 230.992188 297.855469 L 231.488281 297.855469 L 231.488281 306.824219 L 232.640625 306.824219 L 232.640625 297.855469 L 233.214844 297.855469 L 233.214844 313.246094 L 234.289062 313.246094 L 234.289062 297.855469 L 234.867188 297.855469 L 234.867188 319.417969 L 235.933594 319.417969 L 235.933594 297.855469 L 236.511719 297.855469 L 236.511719 325.757812 L 237.664062 325.757812 L 237.664062 297.855469 L 238.242188 297.855469 L 238.242188 321.804688 L 239.3125 321.804688 L 239.3125 297.855469 L 239.890625 297.855469 L 239.890625 314.976562 L 240.957031 314.976562 L 240.957031 297.855469 L 241.539062 297.855469 L 241.539062 308.472656 L 242.6875 308.472656 L 242.6875 297.855469 L 243.183594 297.855469 L 243.183594 304.191406 L 244.335938 304.191406 L 244.335938 297.855469 L 244.914062 297.855469 L 244.914062 299.996094 L 245.988281 299.996094 L 245.988281 297.855469 L 246.5625 297.855469 L 246.5625 304.273438 L 247.71875 304.273438 L 247.71875 297.855469 L 248.207031 297.855469 L 248.207031 310.941406 L 249.363281 310.941406 L 249.363281 297.855469 L 249.9375 297.855469 L 249.9375 317.28125 L 251.011719 317.28125 L 251.011719 297.855469 L 251.585938 297.855469 L 251.585938 313.492188 L 252.65625 313.492188 L 252.65625 297.855469 L 253.230469 297.855469 L 253.230469 307.8125 L 254.386719 307.8125 L 254.386719 297.855469 L 254.960938 297.855469 L 254.960938 303.039062 L 256.035156 303.039062 L 256.035156 297.855469 L 256.613281 297.855469 L 256.613281 299.996094 L 257.683594 299.996094 L 257.683594 297.855469 L 258.257812 297.855469 L 258.257812 303.039062 L 259.414062 303.039062 L 259.414062 297.855469 L 259.90625 297.855469 L 259.90625 310.613281 L 261.058594 310.613281 L 261.058594 297.855469 L 261.636719 297.855469 L 261.636719 315.550781 L 262.707031 315.550781 L 262.707031 297.855469 L 263.285156 297.855469 L 263.285156 312.75 L 264.433594 312.75 L 264.433594 297.855469 L 264.929688 297.855469 L 264.929688 306.824219 L 266.082031 306.824219 L 266.082031 297.855469 L 266.660156 297.855469 L 266.660156 302.546875 L 267.730469 302.546875 L 267.730469 297.855469 L 268.308594 297.855469 L 268.308594 311.683594 L 269.460938 311.683594 L 269.460938 297.855469 L 269.953125 297.855469 L 269.953125 318.511719 L 271.105469 318.511719 L 271.105469 297.855469 L 271.6875 297.855469 L 271.6875 311.105469 L 272.757812 311.105469 L 272.757812 297.855469 L 273.332031 297.855469 L 273.332031 305.34375 L 274.402344 305.34375 L 274.402344 297.855469 L 274.980469 297.855469 L 274.980469 309.128906 L 276.132812 309.128906 L 276.132812 297.855469 L 276.707031 297.855469 L 276.707031 318.675781 L 277.78125 318.675781 L 277.78125 297.855469 L 278.355469 297.855469 L 278.355469 308.882812 L 279.429688 308.882812 L 279.429688 297.855469 L 280.007812 297.855469 L 280.007812 304.109375 L 281.160156 304.109375 L 281.160156 297.855469 L 281.65625 297.855469 L 281.65625 299.996094 L 282.804688 299.996094 L 282.804688 297.855469 L 283.382812 297.855469 L 283.382812 305.34375 L 284.453125 305.34375 L 284.453125 297.855469 L 285.03125 297.855469 L 285.03125 315.714844 L 286.183594 315.714844 L 286.183594 297.855469 L 286.675781 297.855469 L 286.675781 311.269531 L 287.832031 311.269531 L 287.832031 297.855469 L 288.40625 297.855469 L 288.40625 307.566406 L 289.476562 307.566406 L 289.476562 297.855469 L 290.054688 297.855469 L 290.054688 304.523438 L 291.207031 304.523438 L 291.207031 297.855469 L 291.703125 297.855469 L 291.703125 299.996094 L 292.855469 299.996094 L 292.855469 297.855469 L 295.902344 297.855469 L 295.902344 296.703125 " fill-opacity="1" fill-rule="evenodd"/></g><g fill="#ffffff" fill-opacity="1"><g transform="translate(50.32183, 345.419392)"><g><path d="M 6.484375 -11.921875 C 7.191406 -11.921875 7.875 -11.785156 8.53125 -11.515625 C 9.1875 -11.242188 9.769531 -10.847656 10.28125 -10.328125 C 11.394531 -9.191406 11.953125 -7.734375 11.953125 -5.953125 C 11.953125 -4.179688 11.394531 -2.722656 10.28125 -1.578125 C 9.769531 -1.066406 9.1875 -0.675781 8.53125 -0.40625 C 7.875 -0.132812 7.191406 0 6.484375 0 L 1.453125 0 L 1.453125 -11.921875 Z M 6.421875 -1.28125 C 7.671875 -1.28125 8.6875 -1.738281 9.46875 -2.65625 C 10.226562 -3.550781 10.609375 -4.648438 10.609375 -5.953125 C 10.609375 -7.265625 10.226562 -8.363281 9.46875 -9.25 C 8.6875 -10.175781 7.671875 -10.640625 6.421875 -10.640625 L 2.8125 -10.640625 L 2.8125 -1.28125 Z M 6.421875 -1.28125 "/></g></g></g><g fill="#ffffff" fill-opacity="1"><g transform="translate(69.473818, 345.419392)"><g><path d="M 8.140625 -11.921875 L 8.140625 -3.9375 C 8.140625 -2.789062 7.847656 -1.847656 7.265625 -1.109375 C 6.597656 -0.273438 5.59375 0.140625 4.25 0.140625 C 3.039062 0.140625 2.070312 -0.207031 1.34375 -0.90625 C 0.707031 -1.539062 0.347656 -2.300781 0.265625 -3.1875 L 1.671875 -3.1875 C 1.753906 -2.65625 2 -2.207031 2.40625 -1.84375 C 2.882812 -1.394531 3.519531 -1.171875 4.3125 -1.171875 C 5.28125 -1.171875 5.96875 -1.488281 6.375 -2.125 C 6.644531 -2.570312 6.78125 -3.195312 6.78125 -4 L 6.78125 -11.921875 Z M 8.140625 -11.921875 "/></g></g></g><g fill="#ffffff" fill-opacity="1"><g transform="translate(85.439817, 345.419392)"><g/></g></g><g fill="#ffffff" fill-opacity="1"><g transform="translate(95.75383, 345.419392)"><g><path d="M 11.859375 0 L 10.375 0 L 8.90625 -3.453125 L 3 -3.453125 L 1.546875 0 L 0.046875 0 L 5.109375 -11.921875 L 6.796875 -11.921875 Z M 8.390625 -4.703125 L 5.953125 -10.515625 L 3.53125 -4.703125 Z M 8.390625 -4.703125 "/></g></g></g><g fill="#ffffff" fill-opacity="1"><g transform="translate(114.149822, 345.419392)"><g><path d="M 2.8125 -11.921875 L 2.8125 -1.296875 L 9.3125 -1.296875 L 9.3125 0 L 1.453125 0 L 1.453125 -11.921875 Z M 2.8125 -11.921875 "/></g></g></g><g fill="#ffffff" fill-opacity="1"><g transform="translate(130.223821, 345.419392)"><g><path d="M 2.8125 -10.625 L 2.8125 -6.625 L 9.4375 -6.625 L 9.4375 -5.3125 L 2.8125 -5.3125 L 2.8125 -1.296875 L 10.21875 -1.296875 L 10.21875 0 L 1.453125 0 L 1.453125 -11.921875 L 10.21875 -11.921875 L 10.21875 -10.625 Z M 2.8125 -10.625 "/></g></g></g><g fill="#ffffff" fill-opacity="1"><g transform="translate(147.647816, 345.419392)"><g><path d="M 6.34375 -6.15625 L 11.09375 0 L 9.375 0 L 5.515625 -5.109375 L 1.65625 0 L -0.046875 0 L 4.703125 -6.15625 L 0.265625 -11.921875 L 1.984375 -11.921875 L 5.515625 -7.234375 L 9.046875 -11.921875 L 10.765625 -11.921875 Z M 6.34375 -6.15625 "/></g></g></g><g fill="#ffffff" fill-opacity="1"><g transform="translate(165.161807, 345.419392)"><g/></g></g><g fill="#ffffff" fill-opacity="1"><g transform="translate(175.475817, 345.419392)"><g><path d="M 2.8125 -10.625 L 2.8125 -6.484375 L 9.265625 -6.484375 L 9.265625 -5.171875 L 2.8125 -5.171875 L 2.8125 0 L 1.453125 0 L 1.453125 -11.921875 L 10.0625 -11.921875 L 10.0625 -10.625 Z M 2.8125 -10.625 "/></g></g></g><g fill="#ffffff" fill-opacity="1"><g transform="translate(192.449808, 345.419392)"><g><path d="M 2.8125 -10.625 L 2.8125 -6.625 L 9.4375 -6.625 L 9.4375 -5.3125 L 2.8125 -5.3125 L 2.8125 -1.296875 L 10.21875 -1.296875 L 10.21875 0 L 1.453125 0 L 1.453125 -11.921875 L 10.21875 -11.921875 L 10.21875 -10.625 Z M 2.8125 -10.625 "/></g></g></g><g fill="#ffffff" fill-opacity="1"><g transform="translate(209.873803, 345.419392)"><g><path d="M 2.8125 0 L 1.453125 0 L 1.453125 -11.921875 L 7.15625 -11.921875 C 8.375 -11.921875 9.347656 -11.582031 10.078125 -10.90625 C 10.804688 -10.25 11.171875 -9.34375 11.171875 -8.1875 C 11.171875 -6.695312 10.554688 -5.679688 9.328125 -5.140625 C 8.972656 -4.984375 8.628906 -4.875 8.296875 -4.8125 L 11.4375 0 L 9.828125 0 L 6.953125 -4.578125 L 2.8125 -4.578125 Z M 2.8125 -5.84375 L 6.9375 -5.84375 C 8.207031 -5.84375 9.082031 -6.238281 9.5625 -7.03125 C 9.738281 -7.332031 9.828125 -7.71875 9.828125 -8.1875 C 9.828125 -8.945312 9.566406 -9.546875 9.046875 -9.984375 C 8.535156 -10.421875 7.851562 -10.640625 7 -10.640625 L 2.8125 -10.640625 Z M 2.8125 -5.84375 "/></g></g></g><g fill="#ffffff" fill-opacity="1"><g transform="translate(228.39579, 345.419392)"><g><path d="M 11.734375 -11.921875 L 11.734375 0 L 10.171875 0 L 2.8125 -10.0625 L 2.8125 0 L 1.453125 0 L 1.453125 -11.921875 L 3.03125 -11.921875 L 10.390625 -1.890625 L 10.390625 -11.921875 Z M 11.734375 -11.921875 "/></g></g></g><g fill="#ffffff" fill-opacity="1"><g transform="translate(248.069773, 345.419392)"><g><path d="M 11.859375 0 L 10.375 0 L 8.90625 -3.453125 L 3 -3.453125 L 1.546875 0 L 0.046875 0 L 5.109375 -11.921875 L 6.796875 -11.921875 Z M 8.390625 -4.703125 L 5.953125 -10.515625 L 3.53125 -4.703125 Z M 8.390625 -4.703125 "/></g></g></g><g fill="#ffffff" fill-opacity="1"><g transform="translate(266.46576, 345.419392)"><g><path d="M 11.734375 -11.921875 L 11.734375 0 L 10.171875 0 L 2.8125 -10.0625 L 2.8125 0 L 1.453125 0 L 1.453125 -11.921875 L 3.03125 -11.921875 L 10.390625 -1.890625 L 10.390625 -11.921875 Z M 11.734375 -11.921875 "/></g></g></g><g fill="#ffffff" fill-opacity="1"><g transform="translate(286.139755, 345.419392)"><g><path d="M 6.484375 -11.921875 C 7.191406 -11.921875 7.875 -11.785156 8.53125 -11.515625 C 9.1875 -11.242188 9.769531 -10.847656 10.28125 -10.328125 C 11.394531 -9.191406 11.953125 -7.734375 11.953125 -5.953125 C 11.953125 -4.179688 11.394531 -2.722656 10.28125 -1.578125 C 9.769531 -1.066406 9.1875 -0.675781 8.53125 -0.40625 C 7.875 -0.132812 7.191406 0 6.484375 0 L 1.453125 0 L 1.453125 -11.921875 Z M 6.421875 -1.28125 C 7.671875 -1.28125 8.6875 -1.738281 9.46875 -2.65625 C 10.226562 -3.550781 10.609375 -4.648438 10.609375 -5.953125 C 10.609375 -7.265625 10.226562 -8.363281 9.46875 -9.25 C 8.6875 -10.175781 7.671875 -10.640625 6.421875 -10.640625 L 2.8125 -10.640625 L 2.8125 -1.28125 Z M 6.421875 -1.28125 "/></g></g></g><g fill="#ffffff" fill-opacity="1"><g transform="translate(305.291739, 345.419392)"><g><path d="M 2.8125 -10.625 L 2.8125 -6.625 L 9.4375 -6.625 L 9.4375 -5.3125 L 2.8125 -5.3125 L 2.8125 -1.296875 L 10.21875 -1.296875 L 10.21875 0 L 1.453125 0 L 1.453125 -11.921875 L 10.21875 -11.921875 L 10.21875 -10.625 Z M 2.8125 -10.625 "/></g></g></g><g fill="#ffffff" fill-opacity="1"><g transform="translate(322.715734, 345.419392)"><g><path d="M 2.828125 -10.09375 C 2.597656 -9.894531 2.441406 -9.675781 2.359375 -9.4375 C 2.285156 -9.195312 2.25 -8.941406 2.25 -8.671875 C 2.25 -8.398438 2.363281 -8.148438 2.59375 -7.921875 C 2.832031 -7.691406 3.144531 -7.5 3.53125 -7.34375 C 3.914062 -7.1875 4.351562 -7.046875 4.84375 -6.921875 C 5.332031 -6.804688 5.832031 -6.6875 6.34375 -6.5625 C 6.851562 -6.4375 7.351562 -6.289062 7.84375 -6.125 C 8.34375 -5.96875 8.78125 -5.765625 9.15625 -5.515625 C 10.007812 -4.972656 10.4375 -4.234375 10.4375 -3.296875 C 10.4375 -2.179688 10.019531 -1.328125 9.1875 -0.734375 C 8.351562 -0.148438 7.195312 0.140625 5.71875 0.140625 C 4.050781 0.140625 2.78125 -0.207031 1.90625 -0.90625 C 1.125 -1.53125 0.679688 -2.414062 0.578125 -3.5625 L 1.984375 -3.5625 C 2.023438 -2.75 2.421875 -2.125 3.171875 -1.6875 C 3.816406 -1.320312 4.671875 -1.140625 5.734375 -1.140625 C 7.972656 -1.140625 9.09375 -1.835938 9.09375 -3.234375 C 9.09375 -3.710938 8.890625 -4.085938 8.484375 -4.359375 C 8.085938 -4.640625 7.582031 -4.867188 6.96875 -5.046875 C 6.363281 -5.234375 5.707031 -5.40625 5 -5.5625 C 4.300781 -5.71875 3.648438 -5.914062 3.046875 -6.15625 C 2.441406 -6.40625 1.9375 -6.726562 1.53125 -7.125 C 1.132812 -7.53125 0.9375 -8.078125 0.9375 -8.765625 C 0.9375 -9.734375 1.304688 -10.523438 2.046875 -11.140625 C 2.796875 -11.753906 3.921875 -12.0625 5.421875 -12.0625 C 6.929688 -12.0625 8.097656 -11.710938 8.921875 -11.015625 C 9.679688 -10.398438 10.085938 -9.613281 10.140625 -8.65625 L 8.75 -8.65625 C 8.625 -9.644531 7.988281 -10.300781 6.84375 -10.625 C 6.4375 -10.738281 5.925781 -10.796875 5.3125 -10.796875 C 4.707031 -10.796875 4.195312 -10.726562 3.78125 -10.59375 C 3.375 -10.457031 3.054688 -10.289062 2.828125 -10.09375 Z M 2.828125 -10.09375 "/></g></g></g></svg>