<?xml version="1.0" standalone="no"?>
<!DOCTYPE svg PUBLIC "-//W3C//DTD SVG 20010904//EN"
 "http://www.w3.org/TR/2001/REC-SVG-20010904/DTD/svg10.dtd">
<svg version="1.0" xmlns="http://www.w3.org/2000/svg"
 width="500.000000pt" height="500.000000pt" viewBox="0 0 500.000000 500.000000"
 preserveAspectRatio="xMidYMid meet">

<g transform="translate(0.000000,500.000000) scale(0.100000,-0.100000)"
fill="#000000" stroke="none">
<path d="M0 2500 l0 -2500 2500 0 2500 0 0 2500 0 2500 -2500 0 -2500 0 0
-2500z m2771 1964 c433 -60 811 -252 1120 -570 324 -334 491 -703 544 -1201 6
-58 9 -63 31 -63 l24 0 0 -285 c0 -253 2 -285 16 -285 8 0 29 -13 45 -29 l29
-29 0 -311 0 -311 -29 -32 c-25 -28 -36 -33 -74 -33 -43 0 -44 -1 -55 -40 -15
-57 -82 -155 -134 -198 -62 -51 -148 -88 -219 -94 l-59 -6 0 712 0 711 28 0
c41 0 142 -28 179 -50 l32 -19 3 147 c3 144 3 147 26 150 25 4 25 3 0 182 -22
164 -75 341 -149 498 -246 523 -713 889 -1284 1004 -148 31 -516 33 -665 5
-713 -134 -1279 -675 -1434 -1369 -25 -109 -47 -303 -37 -313 2 -3 13 -5 23
-5 17 0 18 -11 18 -146 0 -113 3 -145 13 -141 77 34 140 56 179 61 l48 6 0
-715 0 -715 -23 0 c-41 0 -141 30 -185 56 -94 55 -176 155 -201 246 -12 41
-15 44 -42 40 -16 -2 -42 1 -58 8 -54 22 -56 36 -56 360 0 324 2 338 57 362
l28 13 0 282 0 283 24 0 c23 0 25 5 30 58 51 512 240 911 593 1253 306 297
681 473 1128 532 84 11 383 6 486 -9z m938 -918 c8 -9 11 -69 9 -192 l-3 -178
-25 -13 c-19 -10 -144 -13 -532 -13 l-507 0 -3 -142 -3 -142 -159 304 c-88
168 -170 324 -184 348 l-24 42 710 0 c591 0 711 -2 721 -14z m-1001 -1156
c309 -589 562 -1072 562 -1075 0 -3 -18 -5 -40 -5 l-40 0 2 -137 2 -138 6 120
6 120 4 -120 c4 -118 4 -119 10 -45 l6 75 2 -72 c2 -66 4 -73 22 -73 12 0 20
7 21 18 0 14 2 14 9 -3 7 -15 9 -8 11 30 l3 50 5 -50 c5 -45 6 -41 11 40 l6
90 2 -87 2 -88 30 0 30 0 2 68 2 67 6 -70 c5 -56 7 -62 10 -30 l3 40 4 -37 c3
-30 9 -38 24 -38 15 0 19 8 21 38 l1 37 6 -40 c4 -31 7 -20 11 50 l6 90 4 -90
4 -90 6 125 6 125 4 -125 4 -125 6 105 6 105 2 -102 c2 -96 3 -103 22 -103 16
0 20 7 22 33 l1 32 6 -35 c4 -24 7 -6 11 60 l6 95 4 -95 4 -95 6 140 6 140 2
-137 2 -138 30 0 30 0 2 78 2 77 5 -80 c5 -73 6 -68 11 65 l6 145 2 -142 c2
-136 3 -143 22 -143 17 0 20 7 22 43 l1 42 5 -45 c3 -35 6 -41 12 -25 l9 20 2
-20 c1 -11 5 5 9 35 l7 55 3 -55 c3 -36 6 -12 10 70 l6 125 2 -122 c2 -116 3
-123 22 -123 18 0 20 7 22 68 l2 67 6 -70 c6 -69 7 -69 10 -20 l4 50 4 -50 c3
-38 6 -45 12 -30 7 17 9 17 9 3 1 -11 10 -19 24 -19 l22 -2 -22 -4 c-13 -2
-23 -12 -24 -21 0 -14 -2 -13 -9 3 -7 15 -9 8 -11 -30 l-3 -50 -5 50 -5 50 -6
-70 -6 -70 -2 68 c-2 60 -4 67 -22 67 -19 0 -20 -7 -22 -122 l-2 -123 -6 125
c-4 82 -7 106 -10 70 l-3 -55 -7 55 c-4 30 -8 46 -9 35 l-2 -20 -9 20 c-7 16
-9 10 -11 -25 l-2 -45 -4 42 c-3 35 -8 43 -24 43 -18 0 -19 -9 -21 -142 l-2
-143 -6 145 c-5 125 -6 134 -10 65 l-4 -80 -3 78 -4 77 -29 0 -30 0 -2 -137
-2 -138 -6 140 -6 140 -4 -95 -4 -95 -6 95 c-3 52 -8 79 -10 60 l-3 -35 -4 33
c-3 24 -9 32 -24 32 -17 0 -19 -8 -21 -102 l-2 -103 -6 105 -6 105 -4 -120 -4
-120 -6 120 -6 120 -4 -90 -4 -90 -6 90 c-4 57 -8 75 -10 50 l-3 -40 -4 38
c-3 29 -9 37 -24 37 -15 0 -19 -8 -21 -37 l-1 -38 -6 40 c-5 36 -6 32 -11 -30
l-6 -70 -2 68 -2 67 -30 0 -30 0 -2 -87 -2 -88 -6 90 c-5 66 -7 78 -10 45 l-3
-45 -5 45 c-3 35 -6 41 -12 25 -7 -17 -9 -17 -9 -2 -1 10 -9 17 -21 17 -18 0
-20 -7 -22 -72 l-2 -73 -5 75 c-5 74 -6 73 -11 -45 l-6 -120 -4 120 -4 120 -6
-165 -6 -165 -4 165 -4 165 -6 -190 -6 -190 -2 188 c-2 180 -3 187 -22 187
-19 0 -20 -7 -22 -102 l-2 -103 -6 105 c-6 95 -6 99 -10 40 l-3 -65 -7 65 c-5
48 -7 56 -10 30 l-3 -35 -4 33 c-3 24 -9 32 -24 32 -15 0 -19 -8 -21 -37 l-1
-38 -6 40 c-5 37 -6 35 -11 -25 l-7 -65 -3 65 c-4 59 -4 55 -10 -40 l-6 -105
-2 103 c-2 95 -3 102 -22 102 -18 0 -20 -7 -22 -87 l-2 -88 -5 90 -6 90 -5
-135 -6 -135 -4 135 -4 135 -6 -105 -6 -105 -4 105 -4 105 -6 -90 -6 -90 -2
88 c-2 80 -4 87 -22 87 -18 0 -20 -7 -22 -82 l-2 -83 -6 85 -6 85 -4 -65 -4
-65 -5 65 -5 65 -6 -90 -6 -90 -2 88 c-2 80 -4 87 -22 87 -18 0 -20 -7 -22
-72 l-2 -73 -6 75 -6 75 -4 -95 -4 -95 -6 95 c-4 66 -7 81 -10 50 l-3 -45 -4
43 c-3 34 -8 42 -24 42 -16 0 -19 -8 -21 -57 l-1 -58 -7 60 -7 60 -3 -60 -3
-60 -7 60 c-5 47 -7 53 -10 25 l-3 -35 -6 35 c-5 34 -5 34 -11 -15 l-7 -50 -1
48 c-2 40 -5 47 -22 47 -18 0 -20 -7 -22 -62 l-2 -63 -5 65 c-5 63 -6 62 -11
-40 l-6 -105 -3 105 c-2 69 -5 98 -11 85 -7 -17 -9 -17 -9 -2 -1 10 -9 17 -21
17 -16 0 -20 -7 -22 -37 l-1 -38 -6 40 -5 40 -6 -55 -7 -55 -3 55 -4 55 -6
-75 -6 -75 -2 73 c-2 65 -4 72 -22 72 -19 0 -20 -7 -22 -137 l-2 -138 -6 140
c-5 123 -6 130 -10 60 l-4 -80 -6 80 c-5 65 -7 71 -10 35 l-3 -45 -5 45 c-3
35 -6 41 -12 25 -7 -17 -9 -17 -9 -2 -1 10 -9 17 -21 17 -18 0 -20 -7 -22 -62
l-1 -63 -7 65 -7 65 -3 -95 -4 -95 -6 95 c-5 74 -7 84 -10 45 l-4 -50 -3 48
c-3 39 -8 47 -24 47 -14 0 -19 -7 -20 -27 l-2 -28 -6 30 c-4 25 -6 21 -11 -25
l-7 -55 -3 55 c-3 48 -5 44 -10 -35 l-6 -90 -2 88 c-2 80 -4 87 -22 87 -19 0
-20 -7 -22 -157 l-2 -158 -6 160 -6 160 -4 -210 -4 -210 -6 210 c-5 177 -6
193 -10 100 l-4 -110 -6 110 c-3 61 -8 97 -10 80 l-3 -30 -4 28 c-4 24 -9 28
-31 25 -22 -2 -28 -9 -33 -38 l-6 -35 -3 40 c-3 38 -4 38 -10 -15 l-7 -55 -1
53 c-2 45 -5 52 -22 52 -18 0 -20 -7 -22 -92 l-2 -93 -6 95 -6 95 -4 -110 -4
-110 -6 110 -6 110 -4 -80 -4 -80 -3 78 c-3 69 -6 77 -23 77 -17 0 -20 -7 -22
-42 l-1 -43 -7 45 c-7 44 -7 44 -10 10 l-3 -35 -6 35 c-5 32 -6 31 -11 -20
l-7 -55 -3 55 c-3 46 -5 40 -10 -40 l-6 -95 -2 93 c-2 85 -4 92 -22 92 -16 0
-20 -7 -22 -37 l-1 -38 -6 40 c-5 39 -5 38 -11 -20 l-7 -60 -3 60 -4 60 -6
-70 -6 -70 -2 68 c-2 60 -4 67 -22 67 -17 0 -20 -7 -22 -52 l-1 -53 -7 55 -7
55 -3 -65 -3 -65 -7 65 c-6 62 -7 63 -10 20 l-3 -45 -4 43 c-3 34 -8 42 -24
42 -10 0 -19 -6 -19 -12 0 -9 -4 -8 -10 2 -7 11 -10 7 -11 -20 l-2 -35 -6 35
c-5 32 -6 31 -11 -20 l-7 -55 -3 55 c-4 53 -4 52 -10 -25 l-6 -80 -2 78 c-2
70 -4 77 -22 77 -17 0 -20 -7 -22 -47 l-1 -48 -7 50 c-5 39 -8 43 -10 20 l-3
-30 -5 30 c-4 26 -5 28 -12 10 -7 -17 -9 -17 -9 -2 -1 10 -9 17 -21 17 -17 0
-20 -7 -22 -52 l-2 -53 -3 55 c-3 38 -7 50 -13 40 -9 -13 -10 -13 -12 0 -1 8
-5 -34 -8 -95 l-6 -110 -2 108 c-2 100 -3 107 -22 107 -19 0 -20 -7 -22 -122
l-2 -123 -6 125 c-5 113 -6 118 -10 50 l-4 -75 -6 75 c-5 63 -7 68 -10 30 l-3
-45 -7 45 c-6 38 -7 41 -10 15 l-3 -30 -4 27 c-3 20 -10 28 -26 29 -22 2 -22
2 1 6 16 3 22 12 23 31 2 26 2 26 7 -3 6 -28 6 -27 12 15 l7 45 3 -45 c3 -38
5 -33 10 30 l6 75 4 -75 c4 -68 5 -63 10 50 l6 125 2 -122 c2 -116 3 -123 22
-123 19 0 20 7 22 108 l2 107 6 -110 c3 -60 7 -103 8 -95 2 13 3 13 12 0 7
-11 10 0 12 40 l2 55 3 -52 c3 -45 7 -53 24 -53 11 0 19 7 20 18 0 14 2 14 9
-3 8 -17 9 -16 11 10 l2 30 6 -30 c4 -26 6 -24 11 20 l7 50 1 -47 c2 -41 5
-48 22 -48 18 0 20 7 22 78 l2 77 6 -80 c6 -77 6 -78 10 -25 l3 55 7 -55 c6
-47 7 -50 10 -20 l3 35 4 -34 c3 -26 7 -31 14 -20 6 10 9 10 9 2 0 -7 9 -13
20 -13 17 0 20 7 22 43 l1 42 6 -45 c5 -45 5 -45 11 20 l7 65 3 -65 3 -65 7
55 7 55 1 -52 c2 -46 5 -53 22 -53 18 0 20 7 22 68 l2 67 6 -70 6 -70 4 60 3
60 7 -60 c6 -54 7 -56 10 -20 l3 40 4 -37 c3 -30 9 -38 24 -38 17 0 19 8 21
93 l2 92 6 -95 c5 -80 7 -86 10 -40 l3 55 7 -55 c6 -47 7 -50 10 -20 l3 35 6
-35 5 -35 6 45 7 45 1 -42 c2 -36 5 -43 22 -43 18 0 20 7 22 78 l2 77 5 -80 5
-80 6 110 6 110 4 -110 4 -110 6 95 6 95 2 -92 c2 -86 4 -93 22 -93 17 0 20 7
22 53 l1 52 7 -55 c6 -53 7 -53 10 -15 l3 40 6 -35 c5 -29 11 -36 34 -38 24
-3 27 0 28 30 l2 33 7 -35 c5 -25 8 -4 11 75 l3 110 6 -110 6 -110 2 138 2
137 -476 0 c-377 0 -475 3 -471 13 23 57 1041 2137 1046 2137 4 0 260 -482
569 -1070z m698 23 l-103 -178 -161 -3 -161 -2 -44 82 c-24 46 -68 127 -96
181 l-52 97 360 0 359 0 -102 -177z m-2601 -1888 c56 -55 15 -135 -70 -135
l-45 0 0 80 0 80 45 0 c35 0 52 -6 70 -25z m235 -33 c0 -66 -19 -102 -55 -102
-13 0 -31 7 -40 16 -19 20 -12 32 9 15 8 -7 25 -11 38 -9 21 3 23 9 26 71 4
82 22 90 22 9z m359 -13 c17 -40 31 -76 31 -80 0 -17 -15 -9 -25 14 -7 16 -20
23 -47 25 -32 3 -40 -1 -50 -22 -10 -23 -35 -39 -26 -18 46 114 65 152 74 152
6 0 25 -32 43 -71z m161 1 l0 -70 39 0 c22 0 43 -4 46 -10 4 -6 -15 -10 -49
-10 l-56 0 0 80 c0 47 4 80 10 80 6 0 10 -30 10 -70z m310 60 c0 -5 -20 -10
-45 -10 -41 0 -45 -2 -45 -25 0 -22 4 -25 40 -25 22 0 40 -4 40 -10 0 -5 -18
-10 -40 -10 -36 0 -40 -2 -40 -25 0 -23 4 -25 45 -25 25 0 45 -4 45 -10 0 -5
-25 -10 -55 -10 l-55 0 0 80 0 80 55 0 c30 0 55 -4 55 -10z m130 3 c1 -5 9
-18 20 -31 l19 -23 30 33 c39 43 49 32 12 -13 l-29 -35 29 -39 c37 -49 27 -62
-12 -15 l-29 35 -26 -32 c-37 -48 -51 -40 -15 8 l30 42 -24 32 c-14 17 -25 35
-25 38 0 10 20 9 20 0z m470 -3 c0 -5 -20 -10 -45 -10 -41 0 -45 -2 -45 -25 0
-22 4 -25 40 -25 22 0 40 -4 40 -10 0 -5 -18 -10 -40 -10 -39 0 -40 -1 -40
-35 0 -19 -4 -35 -10 -35 -6 0 -10 33 -10 80 l0 80 55 0 c30 0 55 -4 55 -10z
m230 0 c0 -5 -22 -10 -50 -10 -47 0 -50 -2 -50 -25 0 -23 4 -25 45 -25 25 0
45 -4 45 -10 0 -5 -20 -10 -45 -10 -41 0 -45 -2 -45 -25 0 -23 3 -25 50 -25
28 0 50 -4 50 -10 0 -6 -27 -10 -60 -10 l-60 0 0 80 0 80 60 0 c33 0 60 -4 60
-10z m234 -12 c21 -29 20 -34 -4 -58 l-21 -21 21 -29 c12 -17 17 -30 11 -30
-5 0 -19 14 -31 30 -14 19 -30 30 -46 30 -20 0 -24 -5 -24 -30 0 -16 -4 -30
-10 -30 -6 0 -10 33 -10 80 l0 80 49 0 c40 0 53 -4 65 -22z m197 -40 l44 -63
3 63 c4 90 22 76 22 -18 0 -44 -4 -80 -9 -80 -5 0 -31 30 -58 66 l-48 66 -3
-66 c-4 -94 -22 -82 -22 14 0 100 10 102 71 18z m298 -9 c17 -40 31 -76 31
-80 0 -17 -15 -9 -25 14 -7 16 -20 23 -47 25 -32 3 -40 -1 -50 -22 -10 -23
-35 -39 -26 -18 46 114 65 152 74 152 6 0 25 -32 43 -71z m214 3 l47 -67 0 68
c0 38 4 67 10 67 6 0 10 -33 10 -80 0 -58 -4 -80 -12 -80 -7 1 -34 31 -60 68
l-48 67 0 -68 c0 -38 -4 -67 -10 -67 -6 0 -10 33 -10 80 0 57 4 80 13 80 6 0
33 -31 60 -68z m301 47 c20 -16 26 -29 26 -59 0 -55 -29 -80 -92 -80 l-48 0 0
80 0 80 44 0 c29 0 52 -7 70 -21z m266 11 c0 -5 -22 -10 -50 -10 -47 0 -50 -2
-50 -25 0 -22 4 -25 39 -25 22 0 43 -4 46 -10 4 -6 -12 -10 -39 -10 -42 0 -46
-2 -46 -25 0 -23 4 -25 44 -25 25 0 48 -4 51 -10 4 -6 -17 -10 -54 -10 l-61 0
0 80 0 80 60 0 c33 0 60 -4 60 -10z m215 -10 c18 -20 8 -29 -12 -9 -6 6 -26 9
-44 7 -49 -4 -43 -29 10 -48 52 -18 71 -42 55 -68 -17 -26 -85 -28 -109 -2
-10 11 -15 23 -11 27 4 5 12 0 17 -10 7 -12 22 -17 49 -17 33 0 40 4 40 19 0
14 -13 24 -50 36 -40 13 -50 21 -50 39 0 12 5 27 12 34 19 19 73 14 93 -8z"/>
<path d="M1848 2188 l-303 -583 604 -3 c332 -1 606 0 609 2 4 5 -597 1166
-603 1166 -2 0 -140 -262 -307 -582z"/>
<path d="M2054 1175 c0 -77 2 -107 3 -67 2 40 2 103 0 140 -2 37 -3 4 -3 -73z"/>
<path d="M2070 1175 c0 -128 1 -135 20 -135 18 0 20 7 22 88 l2 87 6 -90 c5
-79 7 -83 10 -35 l3 55 7 -55 c5 -51 6 -52 11 -20 l6 35 1 -32 c2 -25 7 -33
21 -33 16 0 21 8 24 48 l3 47 4 -50 c3 -39 5 -29 10 45 l6 95 4 -95 3 -95 7
65 7 65 1 -62 c2 -56 4 -63 22 -63 12 0 20 7 21 18 0 14 2 14 9 -3 7 -16 9
-10 11 25 l2 45 7 -45 c6 -41 7 -38 10 35 l4 80 6 -80 c6 -72 7 -67 8 58 l2
137 -140 0 -140 0 0 -135z"/>
<path d="M2360 1175 c0 -128 1 -135 20 -135 18 0 20 7 22 73 l2 72 6 -75 6
-75 4 55 3 55 7 -55 6 -55 5 40 6 40 1 -37 c2 -31 6 -38 22 -38 12 0 20 7 21
18 0 14 2 14 9 -3 6 -13 9 16 11 85 l3 105 6 -105 c5 -102 6 -103 11 -40 l5
65 2 -62 c2 -56 4 -63 22 -63 17 0 20 7 22 48 l1 47 7 -50 c6 -49 6 -49 11
-15 l6 35 3 -35 c3 -28 5 -22 10 25 l7 60 3 -60 3 -60 7 60 7 60 1 -57 c2 -50
5 -58 21 -58 16 0 21 8 24 43 l4 42 3 -45 c3 -31 6 -16 10 50 l6 95 4 -95 4
-95 6 75 6 75 2 -72 c2 -66 4 -73 22 -73 18 0 20 7 22 88 l2 87 6 -90 6 -90 5
65 5 65 4 -65 4 -65 6 90 6 90 2 -87 c2 -81 4 -88 22 -88 18 0 20 7 22 88 l2
87 6 -90 6 -90 4 105 4 105 6 -105 6 -105 4 135 4 135 6 -135 5 -135 6 90 5
90 2 -87 c2 -81 4 -88 22 -88 19 0 20 7 22 103 l2 102 6 -105 c6 -95 6 -99 10
-40 l3 65 7 -65 c5 -60 6 -62 11 -25 l6 40 1 -37 c2 -30 6 -38 21 -38 15 0 21
8 24 38 l4 37 3 -40 c3 -34 4 -30 10 25 l7 65 3 -65 c4 -59 4 -55 10 40 l6
105 2 -102 c2 -96 3 -103 22 -103 19 0 20 7 20 135 l0 135 -400 0 -400 0 0
-135z"/>
<path d="M3174 1175 c0 -77 2 -107 3 -67 2 40 2 103 0 140 -2 37 -3 4 -3 -73z"/>
<path d="M710 470 l0 -60 34 0 c42 0 66 22 66 59 0 36 -28 61 -68 61 l-32 0 0
-60z"/>
<path d="M1341 494 c-17 -37 -14 -44 18 -44 29 0 30 1 19 30 -14 41 -23 44
-37 14z"/>
<path d="M2840 500 c0 -28 2 -30 40 -30 27 0 43 5 46 15 10 24 -15 45 -52 45
-31 0 -34 -3 -34 -30z"/>
<path d="M3371 494 c-17 -37 -14 -44 18 -44 29 0 30 1 19 30 -14 41 -23 44
-37 14z"/>
<path d="M3850 470 l0 -61 42 3 c35 2 45 8 56 31 11 22 11 32 0 55 -11 22 -21
28 -56 30 l-42 3 0 -61z"/>
</g>
</svg>
